<?xml version="1.0" encoding="UTF-8"?>
<svg width="210mm" height="297mm" version="1.1" viewBox="0 0 210 297" xmlns="http://www.w3.org/2000/svg" xmlns:cc="http://creativecommons.org/ns#" xmlns:dc="http://purl.org/dc/elements/1.1/" xmlns:rdf="http://www.w3.org/1999/02/22-rdf-syntax-ns#">
 <metadata>
  <rdf:RDF>
   <cc:Work rdf:about="">
    <dc:format>image/svg+xml</dc:format>
    <dc:type rdf:resource="http://purl.org/dc/dcmitype/StillImage"/>
    <dc:title/>
   </cc:Work>
  </rdf:RDF>
 </metadata>
 <g transform="translate(-54.849 -15.736)" stroke-width=".26458">
  <path d="m75.659 146.91 0.11637-0.0661 3.1627-2.9104-1.4462 1.5214-1.4462 1.5214h-0.50314zm3.9615-4.3215 0.02089-0.50712 0.13896 0.34727 0.13896 0.34726-0.15985 0.15985-0.15985 0.15985 0.02089-0.50711zm-8.9958-0.79375 0.02089-0.50712 0.13896 0.34727 0.13896 0.34726-0.15985 0.15985-0.15985 0.15985 0.02089-0.50711zm9.2604-2.1167 0.02089-0.50712 0.13896 0.34727 0.13896 0.34726-0.15985 0.15986-0.15985 0.15985 0.02089-0.50712zm-9.5041-1.1686v-0.66145l0.13345 0.33073 0.13345 0.33072-0.2669 0.66146zm10.298-0.6835 0.02089-0.50712 0.13896 0.34727 0.13896 0.34726-0.31971 0.3197 0.02089-0.50711zm-0.52917-1.0583 0.02089-0.50712 0.13896 0.34726 0.13896 0.34727-0.15985 0.15985-0.15985 0.15985 0.02089-0.50711zm6.0645 0.0544v-0.0999l0.92604-0.72626-0.72625 0.92604h-0.19979zm-5.7999-1.3774 0.02089-0.50712 0.13896 0.34727 0.13896 0.34726-0.15985 0.15985-0.15985 0.15985 0.02089-0.50711zm-10.298-0.37483v-0.66146l0.2669 0.66146-0.2669 0.66146zm-0.26458-3.4396v-0.66146l0.2669 0.66146-0.2669 0.66146zm17.752-0.92604 0.0053-1.0583 0.23013 1.1968-0.12041 0.45993-0.12041 0.45994zm-18.017-2.5135v-0.66145l0.13345 0.33073 0.13345 0.33072-0.2669 0.66146zm18.281-3.5719 0.0053-1.0583 0.11507 0.59839 0.11507 0.5984-0.12041 0.45994-0.12041 0.45993zm-18.567 0.24254 0.02089-0.50712 0.13896 0.34726 0.13896 0.34727-0.15985 0.15985-0.15985 0.15985 0.02089-0.50711zm-0.26458-3.4396 0.02089-0.50712 0.13896 0.34727 0.13896 0.34726-0.15985 0.15986-0.15985 0.15985 0.02089-0.50712zm19.096-2.6238 0.0053-1.0583 0.23013 1.1968-0.12041 0.45993-0.1204 0.45994zm-19.34-0.66146v-0.66146l0.13345 0.33073 0.13345 0.33073-0.13345 0.33073-0.13345 0.33073zm-0.26458-3.4396v-0.66145l0.13345 0.33073 0.13345 0.33072-0.2669 0.66146zm19.869-1.7198 0.0053-1.0583 0.11507 0.5984 0.11507 0.59839-0.24081 0.91988zm-20.133-1.7198v-0.66146l0.2669 0.66146-0.2669 0.66146zm-0.26458-3.4396v-0.66146l0.13345 0.33073 0.13345 0.33073-0.13345 0.33073-0.13345 0.33073zm20.662-0.66146 0.0053-1.0583 0.11507 0.59839 0.11507 0.5984-0.12041 0.45994-0.12041 0.45993zm-20.927-2.7781v-0.66145l0.13345 0.33073 0.13345 0.33072-0.2669 0.66146zm-0.28547-3.3293 0.02089-0.50712 0.13896 0.34726 0.13896 0.34727-0.31971 0.3197 0.02089-0.50711zm-0.2437-3.2852v-0.66146l0.13345 0.33073 0.13345 0.33073-0.13345 0.33073-0.13345 0.33073zm21.989-1.6979 0.06148-0.50724 0.79375-0.21643-0.58211 0.43716-0.3346 0.79375zm-22.254-1.7417v-0.66146l0.2669 0.66146-0.2669 0.66146zm-0.26458-3.4396v-0.66146l0.2669 0.66146-0.13345 0.33073-0.13345 0.33073zm-0.26458-3.4396v-0.66146l0.13345 0.33073 0.13345 0.33073-0.13345 0.33073-0.13345 0.33073zm22.316-7.6729 1.0334-1.0583h0.26458l-2.0669 2.1167h-0.26458zm-25.247-8.621 0.02089-0.50712 0.27793 0.69453-0.15985 0.15985-0.15985 0.15985zm29.699-2.0946 0.0021-1.8521 0.10414 0.99809 0.10414 0.99809-0.10627 0.85399-0.10627 0.854 0.0021-1.8521zm-29.678-1.7198v-0.66146l0.2669 0.66146-0.2669 0.66146zm2.6041-6.7145v-0.0999l0.92604-0.72625-0.72625 0.92604h-0.19979zm23.514-0.89229-0.36313-0.46302 0.92604 0.72625v0.19979h-0.19979zm-1.8521-1.8521-0.36313-0.46302 0.92604 0.72625v0.19979h-0.19979zm-19.016 0.09854v-0.0999l0.92604-0.72625-0.72625 0.92604h-0.1998z" fill="#fad6a1"/>
  <path d="m70.99 144.32-0.1744-0.28219 0.2522-0.2522 0.15667 0.40828 0.15667 0.40829h-0.21675zm7.8161-0.34688v-0.0999l0.92604-0.72626-0.72625 0.92604h-0.19979zm0.81464-2.1711 0.02089-0.50712 0.13896 0.34727 0.13896 0.34726-0.15985 0.15985-0.15985 0.15985 0.02089-0.50711zm-8.9958-0.79375 0.02089-0.50712 0.13896 0.34727 0.13896 0.34726-0.15985 0.15985-0.15985 0.15985 0.02089-0.50711zm9.2604-2.1167 0.02089-0.50712 0.13896 0.34727 0.13896 0.34726-0.15985 0.15986-0.15985 0.15985 0.02089-0.50712zm-9.525-1.3229 0.02089-0.50712 0.13896 0.34726 0.13896 0.34727-0.15985 0.15985-0.15985 0.15985 0.02089-0.50711zm16.964-2.6238 0.0098-0.79375 0.12197 0.46806 0.12197 0.46805-0.13177 0.3257-0.13177 0.32569 0.0098-0.79375zm-17.229-0.8158 0.02089-0.50712 0.13896 0.34727 0.13896 0.34726-0.15985 0.15986-0.15985 0.15985 0.02089-0.50712zm-0.26458-3.4396 0.02089-0.50712 0.13896 0.34727 0.13896 0.34726-0.15985 0.15985-0.15985 0.15985 0.02089-0.50711zm17.768-1.6978v-0.92604l0.242 0.92604-0.121 0.46303-0.121 0.46302zm-18.032-1.7418 0.02089-0.50712 0.13896 0.34726 0.13896 0.34727-0.15985 0.15985-0.15985 0.15985 0.02089-0.50711zm-0.2437-3.2852v-0.66146l0.2669 0.66146-0.2669 0.66146zm18.531-0.92604 0.0098-0.79375 0.12197 0.46806 0.12197 0.46805-0.13177 0.3257-0.13177 0.32569 0.0098-0.79375zm-18.795-2.5135v-0.66146l0.2669 0.66146-0.2669 0.66146zm19.06-3.3073 0.0098-0.79375 0.12197 0.46805 0.12197 0.46806-0.13177 0.32569-0.13177 0.3257 0.0098-0.79375zm-19.345-0.022 0.02089-0.50712 0.13896 0.34726 0.13896 0.34727-0.15985 0.15985-0.15985 0.15984 0.02089-0.50711zm-0.26458-3.4396 0.02089-0.50712 0.27793 0.69454-0.15985 0.15985-0.15985 0.15984 0.02089-0.50711zm19.874-2.3592 0.0098-0.79375 0.12197 0.46806 0.12197 0.46805-0.13177 0.3257-0.13177 0.32569 0.0098-0.79375zm-20.139-1.0804 0.02089-0.50712 0.13896 0.34727 0.13896 0.34726-0.15985 0.15986-0.15985 0.15985 0.02089-0.50712zm-0.26458-3.4396 0.02089-0.50712 0.13896 0.34727 0.13896 0.34726-0.15985 0.15985-0.15985 0.15985 0.02089-0.50711zm20.617-0.88838v-0.24897l0.52311-0.3233-0.31514 0.82124h-0.20797zm-20.881-2.5512 0.02089-0.50712 0.13896 0.34726 0.13896 0.34727-0.15985 0.15985-0.15985 0.15985 0.02089-0.50711zm-0.2437-3.2852v-0.66146l0.2669 0.66146-0.2669 0.66146zm-0.28547-3.3293 0.02089-0.50712 0.13896 0.34726 0.13896 0.34727-0.15985 0.15985-0.15985 0.15985 0.02089-0.50712zm34.131-2.9104 0.0209-0.50712 0.13896 0.34727 0.13897 0.34726-0.15985 0.15985-0.15986 0.15985 0.0209-0.50712zm-34.396-0.52917 0.02089-0.50712 0.27793 0.69453-0.15985 0.15985-0.15985 0.15985 0.02089-0.50712zm35.169-1.5331v-0.09989l0.46302-0.36313 0.46303-0.36312-0.72626 0.92604h-0.1998zm-35.433-1.9065 0.02089-0.50712 0.13896 0.34727 0.13896 0.34726-0.15985 0.15985-0.15985 0.15985 0.02089-0.50712zm-0.26458-3.4396 0.02089-0.50712 0.13896 0.34726 0.13896 0.34727-0.15985 0.15985-0.15985 0.15985 0.02089-0.50712zm1.2878-6.9233-0.9118-0.99219 1.9844 1.8236v0.16078h-0.16078zm-4.1773-9.3266v-0.66146l0.2669 0.66146-0.13345 0.33073-0.13345 0.33073zm0.0098-1.7198 0.0098-0.79375 0.24394 0.93611-0.26355 0.65139zm4.1818-9.525 0.89756-0.92604h0.26458l-1.7951 1.8521h-0.26458zm21.009-0.19844-0.50403-0.59531 1.1906 1.0081v0.18256h-0.18256z" fill="#fac76e"/>
  <path d="m96.658 123.96v-18.918l0.07294 9.4589 0.07294 9.4588-0.07294 9.4589-0.07294 9.4588zm5.1693-24.206-0.62034-0.66032v-2.2556l0.31632-0.59104 0.31631-0.59105 1.3969-0.3506 0.96905 1.1967-4e-3 0.96288-4e-3 0.96288-0.65366 1.2658-0.54823 0.36032-0.54824 0.36032-0.62034-0.66032zm-6.228-3.6969-0.78641-0.63239 0.52917-0.52649 7.3163-4.218-0.70167-0.28031 0.63023-0.04176 0.17382 0.28125 0.17383 0.28126-0.79068 0.8927-0.49047 1.0426-0.49048 1.0426-2.3812 1.3902-2.3959 1.4008-0.7864-0.63239zm1.2781-0.53597 0.05217-0.26096-0.92604-0.17834v0.87135l0.41085-0.08555 0.41085-0.08554zm1.4999-1.3242 0.48772-0.15479 0.30964-0.80692-1.5837 1.1277 0.03069 0.445 0.03069 0.445 0.11861-0.45059 0.1186-0.45059z" fill="#b7b7b7"/>
  <path d="m73.453 145.51-2.3102-1.1776-0.12456-0.59494-0.12456-0.59495-4.2569-55.827-0.13694-1.0583-0.13694-1.0583 0.40438 0.5545 12.832 3.611-0.0023 1.3568-0.0023 1.3568-0.53156 7.3728 0.6685 0.46166 5.0271-0.21946 5.0271-2.2564 2.8398-2.115 0.43772 0.70824 0.18147 1.6946 0.18147 1.6946-0.16489 1.5776-0.16489 1.5776-0.20014 0.30822-0.20013 0.30822-0.13229-1.9545-0.13229-1.9545-2.3812 1.9941-3.1063 2.1101-3.2437 1.3605-4.7625 0.0318-2.9265-1.4373-2.2185-1.899-2.99-4.4938-1.4736-3.7874-0.36597 2.4405 0.36601 1.7686 2.507 5.2917 2.736 2.9846v0.24701l3.9629 7.2322-1.5943 32.636-0.8631 0.95372-0.31486-0.0268zm28.283-50.566-0.17639-0.17639 1e-3 -0.8158 1e-3 -0.8158 1.0486-1.7198h0.27236v3.7042h-0.97014l-0.17639-0.17639zm-9.3045-2.5046-1.0583-0.24663-1.9844-0.53232 0.0041-1.908 0.0041-1.908 0.41255-0.6494 3.945 2.048 3.8365 1.2191-0.0024 0.14636-0.0024 0.14636-3.4902 1.9844-0.6059-0.05316-1.0583-0.24663zm-17.523-8.8116-1.3832-0.33517-3.5836-1.7527-3.9899-4.0143-1.6321-3.4396-0.31951-1.3229-0.31951-1.3229 0.0052-2.1167 0.0052-2.1167 0.59016-2.6292 1.6411-3.4562 4.0192-4.0143 3.4396-1.6776 3.7042-0.78115h2.6458l3.5914 0.761 3.5524 1.7419 3.7252 3.7057 1.6542 3.175 0.41915 1.6257 0.41915 1.6257v4.0806l-0.41915 1.6257-0.41915 1.6257-1.6542 3.175-3.7358 3.7042-3.4291 1.7178-3.1539 0.7957-3.9899-0.04498-1.3832-0.33517z" fill="#f8b649"/>
  <path d="m76.954 145.63v-0.13593l0.76892-16.126 0.76892-16.126 0.03323-1.8521 0.03323-1.8521 0.14687-0.82544 0.14687-0.82545-0.75059-0.18484-0.75059-0.18485-1.1906-0.70215-1.1906-0.70216-0.39688 0.1176v-0.58727l-1.368-1.4923-1.368-1.4923-2.507-5.2917-0.18301-0.8843-0.18301-0.8843 0.18299-1.2202 0.18299-1.2202 0.73678 1.8937 0.73678 1.8937 2.99 4.4938 1.1093 0.94949 1.1093 0.9495 2.7643 1.3525 3.1077 0.2818 1.4123-0.30289 1.4123-0.30288 3.2257-1.5645 3.6536-2.7892 1.0014-0.74248-0.1571 3.9175-3.8365 2.6102 6.88e-4 0.94386 6.88e-4 0.94387-1.0624 24.342-0.15225 1.9046-0.15225 1.9046-3.3391 2.9315-2.9047-0.58334-0.16412-1.1974-0.16414-1.1974-0.05666-1.6459-0.43502 2.1167-0.3138 3.4796-0.3138 3.4796-2.5849 2.546zm2.4621-45.94-0.31601-0.21955 0.29865-5.0644 0.29865-5.0644 3.0571-1.3191 0.12276 0.43883 0.12276 0.43884 1.4872 10.451h0.56948l1.9896-12.303 0.26023-1.0965 1.9506-0.75292 0.40082-0.18034-0.14312 3.9253-0.14312 3.9253-0.29229 4.8419-4.3202 1.9841-5.0271 0.21461z" fill="#f29637"/>
  <path d="m98.385 123.43v-19.403l0.13913 0.13913 0.13913 0.13912-0.02042 38.269-0.12891 0.12891-0.12892 0.12891zm-3.671-20.884 0.25773-0.73933 1.2966-0.59076v-4.4603l4.8948-2.8674 0.9342 1.5217 0.32665-0.16501 0.32665-0.16501-0.93725 0.76723-2.2274-0.76741-0.93637 1.1564v2.3226l1.1024 1.1024-0.0882 0.06316-0.08819 0.06316-2.6458 1.4861-1.6992 1.6024 0.10367 0.16774 0.10367 0.16773-0.98163 0.074zm6.7359-2.8341-0.16666-0.4343 0.80586 0.66881v0.1998h-0.47255zm-0.39824-1.043 0.0209-0.50712 0.13897 0.34727 0.13896 0.34726-0.15985 0.15985-0.15985 0.15985 0.0209-0.50712zm-6.3709-2.4424v-1.0279l-3.5719-0.74362 6.0854-3.395 2.2703-1.2614 0.90474 0.26198 2.3202 0.60024-7.3473 4.2359-0.52917 0.52456 1.2656 1.034-0.20726 0.17968-1.1906 0.61946zm2.9313-1.5263 0.02088-0.50712 0.13896 0.34727 0.13896 0.34726-0.15985 0.15985-0.15985 0.15985 0.02088-0.50712z" fill="#949494"/>
  <path d="m76.65 109.5-1.6806-3.1224-0.09164-0.21243-0.09164-0.21244 2.4893 1.5787 1.4701 0.32289-0.27412 4.6014-0.14084 0.1666zm7.0934-15.367-0.74358-5.2255-0.24838-0.88668-2.9432 1.3016-11.453-3.2307-1.8521-0.57671 6.6821-2.2354 2.8259 0.73303h4.6707l3.2838-0.80366 5.5562 1.8345-2.2225 0.95355-0.12646 0.52917-0.12646 0.52917-0.99479 6.1516-0.99479 6.1516h-0.56948zm6.2411 1.3346-0.59531-0.11466v-3.5736l3.5719 0.90366 1.0154 0.19322-2.7352 1.4882v1.2899l-0.66146-0.07206zm6.0193-0.08616v-0.25628h0.79375v0.20797l-0.79375 0.30459z" fill="#e7732e"/>
  <path d="m97.128 142.56 0.46302-0.121 0.92604 0.242h-1.8521zm-3.7131-39.729-0.33969-0.21554 0.16884-0.43999 0.16884-0.43998 1.2677 0.31818v-4.4979l-1.2808-0.32145-0.17372-0.79096-0.17372-0.79096-0.51173-0.31626-1.2996 0.85156v-1.5997h0.44091l2.9987 0.60222v2.0572l1.5875-0.82093v4.7874l-1.3356 0.60854-0.15463 0.6161-0.15463 0.6161-0.86867-8e-3 -0.33969-0.21554zm2.4564-0.54243 0.79375-0.85747 2.9104-1.6379 0.08819-0.06703 0.0882-0.06703-1.1024-1.1024v-2.3226l0.92604-1.1206 2.0269 0.56946-0.18281 0.44471-0.1828 0.44471-0.1331 1.0857-0.13311 1.0857 0.30394 0.56791 0.30394 0.56791h-1.1545l-2.7006 1.7717-2.6458 1.4947zm-2.4316-2.8058 0.0027-1.5875 0.10707 0.86463 0.10707 0.86464-0.10976 0.72287-0.10977 0.72286z" fill="#696969"/>
  <path d="m84.825 153.41-0.46302-0.121v-0.67115l11.125-49.661 0.12014-0.0818 1.8521-1.0966 1.8521-1.0966 0.11853 0.32772 0.11853 0.32773 15.939 48.683-1.5009 0.47602-0.1842-0.21144-14.937-45.773-0.23212-0.39688-0.23212-0.39687-8e-3 19.381-8e-3 19.381h-1.5875v-37.924l-0.10696 0.11025-0.10696 0.11024-10.661 47.625-0.29509 1.1906-0.33951-0.0614zm8.9297-51.614-0.26458-0.19439v-4.3716l0.70474 0.27057h0.48589v4.4979l-0.66146-8e-3 -0.26458-0.19439z" fill="#030303"/>
 </g>
</svg>
